<svg width="80" height="80" viewBox="0 0 80 80" fill="none" xmlns="http://www.w3.org/2000/svg">
<path d="M66.7687 31.7687L41.7687 56.7687C41.5366 57.0011 41.2608 57.1855 40.9573 57.3113C40.6538 57.4371 40.3285 57.5019 40 57.5019C39.6714 57.5019 39.3461 57.4371 39.0426 57.3113C38.7391 57.1855 38.4634 57.0011 38.2312 56.7687L13.2312 31.7687C12.7621 31.2996 12.4986 30.6633 12.4986 29.9999C12.4986 29.3365 12.7621 28.7003 13.2312 28.2312C13.7003 27.7621 14.3366 27.4985 15 27.4985C15.6634 27.4985 16.2996 27.7621 16.7687 28.2312L40 51.4656L63.2312 28.2312C63.4635 27.9989 63.7393 27.8146 64.0427 27.6889C64.3462 27.5632 64.6715 27.4985 65 27.4985C65.3285 27.4985 65.6537 27.5632 65.9572 27.6889C66.2607 27.8146 66.5365 27.9989 66.7687 28.2312C67.001 28.4634 67.1853 28.7392 67.311 29.0427C67.4367 29.3462 67.5014 29.6714 67.5014 29.9999C67.5014 30.3284 67.4367 30.6537 67.311 30.9572C67.1853 31.2606 67.001 31.5364 66.7687 31.7687Z" fill="white"/>
</svg>
